# File created by Blade
# Date/Time:  Wed Jan 21 14:37:15 2015
# Frame Rate: 120.000 fps
#------------------------------------------------------
:FULLY-SPECIFIED
:DEGREES
316
root 18.616884 35.589069 -21.266568 -173.431572 -7.551656 -180.194386
Spine -17.011434 7.407924 1.468302
Head 1.067641 -7.585690 -5.840868
LeftShoulder 17.267320 -34.881319 -18.635343
LeftArm 17.904199 22.778988 -76.118022
LeftForeArm -37.980534 -0.000000 138.172448
LeftHand -0.937826 -0.000000 21.500103
LeftHandThumb1 -26.253704 0.000000 33.147579
RightShoulder 15.695143 58.610317 -34.102875
RightArm 95.644436 -29.796203 63.482719
RightForeArm -55.340798 -0.000000 119.462566
RightHand -6.481463 0.000000 7.653059
RightHandThumb1 -24.326973 -0.000000 -32.862282
LeftUpLeg -0.814794 9.350332 0.232722
LeftLeg -6.018468 -0.000000 0.000000
LeftFoot -17.775039 26.983213 -12.071967
LeftToeBase 26.355567 -0.000000 -0.000000
RightUpLeg 0.257659 -12.621414 0.355361
RightLeg -3.850353 -0.000000 0.000000
RightFoot -20.440036 -28.478568 13.291249
RightToeBase 23.846433 -0.000000 -0.000000
317
root 18.612509 35.588493 -21.266161 -173.457369 -7.554828 -180.200070
Spine -16.981143 7.410770 1.464037
Head 1.029777 -7.586946 -5.797076
LeftShoulder 17.210909 -34.830628 -18.551956
LeftArm 17.836369 22.753358 -76.187284
LeftForeArm -37.981656 0.000000 137.908149
LeftHand -0.899459 -0.000000 21.299976
LeftHandThumb1 -26.253704 0.000000 33.147579
RightShoulder 15.626110 58.582264 -34.196676
RightArm 95.499625 -29.773895 63.459304
RightForeArm -55.401202 -0.000000 119.429359
RightHand -6.543668 -0.000000 7.504293
RightHandThumb1 -24.326973 -0.000000 -32.862282
LeftUpLeg -0.791345 9.359382 0.224065
LeftLeg -6.010185 -0.000000 0.000000
LeftFoot -17.779906 26.962575 -12.058752
LeftToeBase 26.526652 -0.000000 -0.000000
RightUpLeg 0.282316 -12.583574 0.333875
RightLeg -3.839607 -0.000000 0.000000
RightFoot -20.446865 -28.530692 13.266155
RightToeBase 23.882734 -0.000000 -0.000000
318
root 18.609157 35.587841 -21.266010 -173.493620 -7.557542 -180.201932
Spine -16.941990 7.418893 1.476248
Head 1.003454 -7.594409 -5.790040
LeftShoulder 17.182828 -34.761837 -18.536013
LeftArm 17.743939 22.590057 -76.268051
LeftForeArm -37.796752 -0.000000 137.557796
LeftHand -0.930900 -0.000000 20.706716
LeftHandThumb1 -26.253704 0.000000 33.147579
RightShoulder 15.469543 58.548500 -34.371547
RightArm 95.303054 -29.717026 63.390136
RightForeArm -55.388239 -0.000000 119.325603
RightHand -6.476025 0.000000 7.048441
RightHandThumb1 -24.326973 -0.000000 -32.862282
LeftUpLeg -0.761801 9.361704 0.223909
LeftLeg -5.991845 -0.000000 0.000000
LeftFoot -17.788163 26.961553 -12.041879
LeftToeBase 26.536885 -0.000000 -0.000000
RightUpLeg 0.312758 -12.555000 0.316892
RightLeg -3.823059 -0.000000 0.000000
RightFoot -20.464376 -28.547904 13.293349
RightToeBase 23.829842 -0.000000 -0.000000
319
root 18.605277 35.587467 -21.265816 -173.528399 -7.562825 -180.202832
Spine -16.901240 7.402300 1.488440
Head 0.962850 -7.565911 -5.748347
LeftShoulder 17.056011 -34.686955 -18.442698
LeftArm 17.684792 22.435647 -76.354113
LeftForeArm -37.389170 0.000000 137.057808
LeftHand -1.127914 0.000000 20.291532
LeftHandThumb1 -26.253704 0.000000 33.147579
RightShoulder 15.293687 58.725039 -34.541667
RightArm 94.807625 -29.739719 63.504768
RightForeArm -55.236842 -0.000000 119.263170
RightHand -6.299127 -0.000000 6.770506
RightHandThumb1 -24.326973 -0.000000 -32.862282
LeftUpLeg -0.732837 9.375260 0.222569
LeftLeg -5.981222 -0.000000 0.000000
LeftFoot -17.800937 26.942347 -12.026365
LeftToeBase 26.551829 -0.000000 -0.000000
RightUpLeg 0.341572 -12.550699 0.301324
RightLeg -3.806337 -0.000000 0.000000
RightFoot -20.479056 -28.549507 13.280973
RightToeBase 23.854164 -0.000000 -0.000000
320
root 18.602140 35.587755 -21.265059 -173.546641 -7.571261 -180.202605
Spine -16.886881 7.300710 1.518653
Head 0.931178 -7.461376 -5.693575
LeftShoulder 16.707586 -34.641250 -18.177609
LeftArm 17.668140 22.487968 -76.351797
LeftForeArm -36.652219 -0.000000 136.364315
LeftHand -0.894498 -0.000000 19.760807
LeftHandThumb1 -26.253704 0.000000 33.147579
RightShoulder 15.281851 58.761562 -34.572386
RightArm 94.489074 -29.677203 63.454611
RightForeArm -55.145015 -0.000000 119.092481
RightHand -6.287150 -0.000000 6.274937
RightHandThumb1 -24.326973 -0.000000 -32.862282
LeftUpLeg -0.722447 9.370925 0.219845
LeftLeg -5.966946 -0.000000 0.000000
LeftFoot -17.800009 26.934791 -12.019221
LeftToeBase 26.509629 -0.000000 -0.000000
RightUpLeg 0.360152 -12.514684 0.291771
RightLeg -3.803994 -0.000000 0.000000
RightFoot -20.486083 -28.580087 13.308825
RightToeBase 23.872695 -0.000000 -0.000000
321
root 18.599507 35.587497 -21.263766 -173.573602 -7.584090 -180.195350
Spine -16.860787 7.219181 1.564618
Head 0.900801 -7.393691 -5.690672
LeftShoulder 16.426110 -34.650560 -18.014346
LeftArm 17.551985 22.406928 -76.403955
LeftForeArm -36.100004 0.000000 135.522142
LeftHand -0.399951 -0.000000 18.577636
LeftHandThumb1 -26.253704 0.000000 33.147579
RightShoulder 15.135748 58.489126 -34.677448
RightArm 94.443984 -29.455262 63.171886
RightForeArm -54.895733 -0.000000 118.795866
RightHand -6.166503 -0.000000 5.529492
RightHandThumb1 -24.326973 -0.000000 -32.862282
LeftUpLeg -0.710975 9.364522 0.227314
LeftLeg -5.948004 -0.000000 0.000000
LeftFoot -17.820504 26.942039 -12.004836
LeftToeBase 26.438850 -0.000000 -0.000000
RightUpLeg 0.380140 -12.475805 0.287809
RightLeg -3.788526 -0.000000 0.000000
RightFoot -20.501052 -28.613165 13.331745
RightToeBase 23.858279 -0.000000 -0.000000
322
root 18.596318 35.586897 -21.261527 -173.609615 -7.600451 -180.185425
Spine -16.837361 7.236596 1.587948
Head 0.922870 -7.430393 -5.670763
LeftShoulder 16.256114 -34.642037 -17.944916
LeftArm 17.407836 22.195692 -76.459075
LeftForeArm -35.626967 -0.000000 134.631738
LeftHand -0.352117 -0.000000 17.544053
LeftHandThumb1 -26.253704 0.000000 33.147579
RightShoulder 14.804986 58.171663 -34.941376
RightArm 94.261644 -29.254930 62.925352
RightForeArm -54.603760 -0.000000 118.444574
RightHand -6.032399 0.000000 4.710375
RightHandThumb1 -24.326973 -0.000000 -32.862282
LeftUpLeg -0.689882 9.356135 0.237647
LeftLeg -5.928014 -0.000000 0.000000
LeftFoot -17.827180 26.937805 -11.961793
LeftToeBase 26.610366 -0.000000 -0.000000
RightUpLeg 0.403803 -12.470750 0.285704
RightLeg -3.767531 -0.000000 0.000000
RightFoot -20.513217 -28.627623 13.339642
RightToeBase 23.855108 -0.000000 -0.000000
323
root 18.593901 35.586346 -21.257591 -173.632033 -7.620119 -180.182397
Spine -16.860020 7.188879 1.608396
Head 1.008543 -7.362338 -5.613337
LeftShoulder 16.014451 -34.648819 -17.842611
LeftArm 17.241887 21.975800 -76.477120
LeftForeArm -35.401421 -0.000000 133.637665
LeftHand -0.261600 -0.000000 16.460540
LeftHandThumb1 -26.253704 0.000000 33.147579
RightShoulder 14.599565 57.893823 -35.138444
RightArm 93.922651 -29.010580 62.688901
RightForeArm -54.378893 -0.000000 118.102274
RightHand -5.929837 -0.000000 3.765560
RightHandThumb1 -24.326973 -0.000000 -32.862282
LeftUpLeg -0.685641 9.327822 0.240298
LeftLeg -5.912113 -0.000000 0.000000
LeftFoot -17.844548 26.954929 -11.950548
LeftToeBase 26.609584 -0.000000 -0.000000
RightUpLeg 0.410976 -12.459391 0.281533
RightLeg -3.743314 -0.000000 0.000000
RightFoot -20.529537 -28.659835 13.333681
RightToeBase 23.871859 -0.000000 -0.000000
324
root 18.593793 35.587890 -21.255411 -173.665949 -7.643188 -180.197823
Spine -16.923495 7.459705 1.397676
Head 1.226214 -7.731286 -5.305325
LeftShoulder 16.246200 -34.525710 -17.956473
LeftArm 17.106414 21.838906 -76.393515
LeftForeArm -35.214740 -0.000000 132.532200
LeftHand -0.167021 -0.000000 15.201361
LeftHandThumb1 -26.253704 0.000000 33.147579
RightShoulder 13.946959 56.932021 -35.357262
RightArm 93.999291 -28.643690 62.034336
RightForeArm -54.145546 -0.000000 117.572039
RightHand -5.743805 0.000000 2.677601
RightHandThumb1 -24.326973 -0.000000 -32.862282
LeftUpLeg -0.665592 9.321209 0.231304
LeftLeg -5.893813 -0.000000 0.000000
LeftFoot -17.822885 26.928328 -11.976826
LeftToeBase 26.502595 -0.000000 -0.000000
RightUpLeg 0.441915 -12.453384 0.260062
RightLeg -3.732183 -0.000000 0.000000
RightFoot -20.544795 -28.673067 13.351490
RightToeBase 23.881395 -0.000000 -0.000000
325
root 18.592204 35.587865 -21.252191 -173.699056 -7.674690 -180.203932
Spine -16.993074 7.574177 1.297990
Head 1.480973 -7.903281 -5.145827
LeftShoulder 16.231233 -34.404745 -17.975614
LeftArm 17.051077 21.671267 -76.230453
LeftForeArm -35.182675 -0.000000 131.332601
LeftHand -0.130905 -0.000000 13.894099
LeftHandThumb1 -26.253704 0.000000 33.147579
RightShoulder 13.780286 56.385172 -35.420341
RightArm 93.690227 -28.306433 61.591639
RightForeArm -54.246960 -0.000000 117.078749
RightHand -5.923482 -0.000000 1.652422
RightHandThumb1 -24.326973 -0.000000 -32.862282
LeftUpLeg -0.647552 9.296913 0.230770
LeftLeg -5.876570 -0.000000 0.000000
LeftFoot -17.826769 26.915629 -11.977353
LeftToeBase 26.414853 -0.000000 -0.000000
RightUpLeg 0.465789 -12.456828 0.246710
RightLeg -3.711433 -0.000000 0.000000
RightFoot -20.565229 -28.699954 13.353214
RightToeBase 23.932608 -0.000000 -0.000000
326
root 18.590602 35.587986 -21.247977 -173.709046 -7.711687 -180.202220
Spine -17.049435 7.574119 1.282708
Head 1.620153 -7.946831 -5.097404
LeftShoulder 15.990790 -34.439160 -17.905093
LeftArm 16.929166 21.621957 -76.057986
LeftForeArm -35.270657 -0.000000 130.028302
LeftHand 0.152013 -0.000000 12.428629
LeftHandThumb1 -26.253704 0.000000 33.147579
RightShoulder 13.528310 55.865038 -35.605466
RightArm 93.368452 -28.033355 61.239095
RightForeArm -54.257136 -0.000000 116.463837
RightHand -5.819772 -0.000000 0.555071
RightHandThumb1 -24.326973 -0.000000 -32.862282
LeftUpLeg -0.654560 9.265576 0.231959
LeftLeg -5.867276 -0.000000 0.000000
LeftFoot -17.831691 26.918604 -11.961856
LeftToeBase 26.584074 -0.000000 -0.000000
RightUpLeg 0.464261 -12.461590 0.246616
RightLeg -3.689309 -0.000000 0.000000
RightFoot -20.576678 -28.726909 13.356191
RightToeBase 23.859061 -0.000000 -0.000000
327
root 18.589264 35.587989 -21.243186 -173.731414 -7.758385 -180.200471
Spine -17.092567 7.599674 1.271393
Head 1.769234 -8.011441 -5.061581
LeftShoulder 15.733508 -34.423330 -17.827662
LeftArm 16.908887 21.679136 -75.723476
LeftForeArm -35.388239 -0.000000 128.672235
LeftHand 0.258039 -0.000000 11.269822
LeftHandThumb1 -26.253704 0.000000 33.147579
RightShoulder 13.281895 55.295687 -35.841733
RightArm 93.028641 -27.704351 60.796354
RightForeArm -54.402060 0.000000 115.813107
RightHand -5.943858 -0.000000 -0.587115
RightHandThumb1 -24.326973 -0.000000 -32.862282
LeftUpLeg -0.656628 9.242794 0.236179
LeftLeg -5.844718 -0.000000 0.000000
LeftFoot -17.822366 26.896921 -11.927020
LeftToeBase 26.641952 -0.000000 -0.000000
RightUpLeg 0.473818 -12.486670 0.245164
RightLeg -3.668353 -0.000000 0.000000
RightFoot -20.589494 -28.741184 13.373495
RightToeBase 23.845611 -0.000000 -0.000000
